# xmcd
#
# Track frame offsets: 
#        150
#        17603
#        37003
#        51133
#        70325
#        87523
#        105477
#        119158
#        136330
#        154241
#        170654
#        187568
#        205508
#        222387
#
# Disc length: 3404 seconds
#
# Revision: 4
# Processed by: cddbd v1.5.2PL0 Copyright (c) Steve Scherf et al.
# Submitted via: ExactAudioCopy v0.99pb5
#
DISCID=c40d4a0e
DTITLE=Bad Boys Blue - Around The World
DYEAR=2003
DGENRE=Electronic
TTITLE0=Around The World
TTITLE1=Cold As Ice
TTITLE2=Baby Come Home
TTITLE3=Think About You
TTITLE4=Lover On The Line (Radio Edit)
TTITLE5=A Bridge Of Heartaches
TTITLE6=Join The Bad Boys Blue
TTITLE7=Babe
TTITLE8=Heaven Or Hell
TTITLE9=I'm Your Lover
TTITLE10=I'm Living For Your Love
TTITLE11=Only One Breath Away
TTITLE12=Around The World (Remix)
TTITLE13=Lover On The Line (Extended Version)
EXTD=
EXTT0=
EXTT1=
EXTT2=
EXTT3=
EXTT4=
EXTT5=
EXTT6=
EXTT7=
EXTT8=
EXTT9=
EXTT10=
EXTT11=
EXTT12=
EXTT13=
PLAYORDER=
